<svg xmlns="http://www.w3.org/2000/svg" viewBox="0 0 100 100" role="img" aria-label="Emerald Garden">
  <!-- Badge — brand forest green only -->
  <circle cx="50" cy="50" r="49" fill="#2f4432"/>

  <!-- Seal rings — white at varying opacity -->
  <circle cx="50" cy="50" r="45" fill="none" stroke="#ffffff" stroke-width="1.5" opacity="0.9"/>
  <circle cx="50" cy="50" r="41.5" fill="none" stroke="#ffffff" stroke-width="0.6" opacity="0.35"/>

  <!-- Branches -->
  <g fill="none" stroke="#ffffff" stroke-linecap="round" stroke-linejoin="round">
    <path d="M50.5 70c-.5-7 3.5-11 2-18.5" stroke-width="3" opacity="0.95"/>
    <path d="M52 54c3.5-1.5 7.5-3.5 11-5.5" stroke-width="1.8" opacity="0.85"/>
    <path d="M49.5 59c-3.5-.6-7-1.8-10.5-3.2" stroke-width="1.6" opacity="0.85"/>
    <path d="M51.5 46c-.8-2.5-.4-5.5 1-8.5" stroke-width="1.7" opacity="0.85"/>
  </g>

  <!-- Canopy -->
  <path fill="#ffffff" d="M50 19.5c8.8 0 16.4 5.2 18.2 12.8 1 4.4-1.2 8.8-5.5 10.4l-25.4.2c-4.5-1.5-6.9-6-6.1-10.5C32.5 24.7 40.5 19.5 50 19.5z"/>
  <!-- Canopy shading — forest cutback -->
  <path fill="#2f4432" opacity="0.14" d="M34.5 38.5c4 1.8 9.5 2.6 15.5 2.6 6.2 0 12-.9 16.5-2.8l1.2 3.4-33-.2z"/>
  <path fill="#2f4432" opacity="0.12" d="M40.5 27.5c3.2-2.8 7.4-4.2 11.8-3.8 3.6.3 7 1.8 9.6 4.2-2.8-1.2-6-1.7-9.2-1.4-4.2.4-8 2-12.2 4.8-.4-1.4-.4-2.7 0-3.8z"/>

  <!-- Left pad -->
  <path fill="#ffffff" d="M32.5 47c4.8-.2 8.6 2.6 9.2 6.6.6 4-2.4 7.6-6.9 8.3-4.7.7-9-2.1-9.8-6.3-.8-4.4 2.7-8.4 7.5-8.6z"/>
  <path fill="#2f4432" opacity="0.12" d="M27.5 50.5c1.8-1.8 4.2-2.7 6.8-2.5 2 .1 3.8.8 5.3 2-1.8-.7-3.8-1-5.7-.9-2.7.2-5 1.4-6.4 1.4z"/>

  <!-- Right pad -->
  <path fill="#ffffff" d="M67 43.5c4.5.1 8 3.2 7.9 7.1-.2 4-3.9 7-8.2 6.7-4.4-.3-7.6-3.9-7.3-7.9.3-3.8 3.6-6.7 7.6-5.9z"/>
  <path fill="#2f4432" opacity="0.12" d="M61.5 47c1.6-1.5 3.7-2.3 6-2.2 1.8.1 3.5.7 4.9 1.8-1.6-.6-3.4-.9-5.2-.8-2.4.1-4.4 1.2-5.7 1.2z"/>

  <!-- Trunk -->
  <path fill="#ffffff" d="M47.2 71c-.6-6.5 3.2-10.2 2.1-16.8-.7-4.4-3.4-6.7-2.6-11.2l4.8.6c-.7 3.6 1.5 5.7 2.2 9.6 1.2 6.4-2.4 10.2-1.9 16.7l-4.6 1.1z"/>
  <path fill="#2f4432" opacity="0.15" d="M50.8 43.8l1.6.2c-.5 2.4.4 4 1.4 6.6-1.2-1.6-2-3.1-2.2-5.2-.1-1.2 0-2.3.2-3.4l-1-.6.1 2.4z"/>

  <!-- Pot -->
  <path fill="#ffffff" d="M36.5 72.5h27c.7 0 1.2.6 1.1 1.3l-1.5 8.2c-.2 1-1 1.7-2 1.7H38.9c-1 0-1.8-.7-2-1.7l-1.5-8.2c-.1-.7.4-1.3 1.1-1.3z"/>
  <rect x="33.5" y="69" width="33" height="4.5" rx="1.6" fill="#ffffff"/>
  <!-- Pot rim seam + feet — forest -->
  <path d="M38 74.5h24" stroke="#2f4432" stroke-width="0.8" opacity="0.35"/>
  <path fill="#2f4432" opacity="0.85" d="M41.5 84.7h5.2v1.8c0 .7-.5 1.2-1.2 1.2h-2.8c-.7 0-1.2-.5-1.2-1.2v-1.8zm11.8 0h5.2v1.8c0 .7-.5 1.2-1.2 1.2h-2.8c-.7 0-1.2-.5-1.2-1.2v-1.8z"/>
</svg>
